<svg width="44" height="44" viewBox="0 0 44 44" fill="none" xmlns="http://www.w3.org/2000/svg">
<rect width="44" height="44" rx="12" fill="white"/>
<path d="M29.6641 27.5861C29.3873 28.2653 29.0454 28.913 28.6436 29.5191C28.1068 30.3262 27.666 30.8839 27.3281 31.1943C26.8034 31.7015 26.2396 31.9624 25.6369 31.9772C25.2051 31.9772 24.6833 31.8477 24.0756 31.5847C23.4658 31.3227 22.9061 31.1943 22.3933 31.1943C21.8565 31.1943 21.2808 31.3227 20.6641 31.5847C20.0483 31.8477 19.5505 31.9856 19.1697 31.9982C18.593 32.0245 18.0162 31.7572 17.4415 31.1943C17.0746 30.8576 16.6158 30.2788 16.0651 29.4601C15.4753 28.5878 14.9905 27.5724 14.6107 26.4181C14.2039 25.169 14 23.961 14 22.7909C14 21.4514 14.2748 20.2949 14.8256 19.3269C15.2422 18.5666 15.8377 17.932 16.5549 17.4844C17.262 17.0378 18.0693 16.7974 18.8938 16.7878C19.3536 16.7878 19.9564 16.9372 20.703 17.2318C21.4497 17.5264 21.9295 17.6759 22.1384 17.6759C22.2963 17.6759 22.8271 17.5001 23.7307 17.1518C24.5833 16.8288 25.303 16.6952 25.8928 16.7478C27.4921 16.8835 28.6925 17.5464 29.4912 18.7418C28.0618 19.6541 27.3551 20.9305 27.3691 22.5689C27.3811 23.8453 27.8219 24.907 28.6855 25.7499C29.0673 26.1345 29.5128 26.4423 30 26.658C29.894 26.981 29.7821 27.2893 29.6641 27.5861ZM25.9987 12.4009C25.9987 13.4005 25.6509 14.3349 24.9602 15.1988C24.1245 16.2259 23.115 16.8204 22.0205 16.7267C22.0061 16.601 21.9991 16.4745 21.9995 16.3479C21.9995 15.3872 22.3953 14.3602 23.102 13.5194C23.4538 13.0943 23.9016 12.7397 24.4444 12.4577C24.9862 12.1799 25.4979 12.0263 25.9797 12C25.9927 12.1347 25.9987 12.2683 25.9987 12.4009Z" fill="#383A3A"/>
</svg>
